<svg width="34" height="40" viewBox="0 0 34 40" fill="none" xmlns="http://www.w3.org/2000/svg">
<path d="M16.3247 8.35156C14.3989 6.42508 13.0808 3.06094 12.4266 0C11.7715 3.06156 10.4547 6.42641 8.52825 8.35289C6.60247 10.278 3.23731 11.5962 0.177002 12.2516C3.23856 12.9058 6.6031 14.2231 8.52888 16.1497C10.4547 18.0755 11.7728 21.4403 12.4279 24.5012C13.0821 21.4397 14.3998 18.0748 16.3253 16.1484C18.2511 14.2226 21.6162 12.9051 24.6765 12.2496C21.6157 11.5955 18.2511 10.2774 16.3247 8.35156Z" fill="url(#paint0_linear_85_499)"/>
<path d="M28.8338 23.7765C27.6843 22.6264 26.8955 20.6155 26.5047 18.7871C26.1133 20.6155 25.3272 22.6263 24.1764 23.7771C23.0256 24.9266 21.0151 25.7147 19.187 26.1062C21.0158 26.4976 23.0256 27.2844 24.1764 28.4352C25.3272 29.5853 26.1147 31.5961 26.5061 33.4245C26.8968 31.5954 27.6843 29.5853 28.8344 28.4345C29.9845 27.2844 31.9953 26.4969 33.8231 26.1048C31.9954 25.7141 29.9846 24.9266 28.8338 23.7765Z" fill="url(#paint1_linear_85_499)"/>
<path d="M8.4339 27.7109C8.10523 29.2459 7.44522 30.9346 6.47929 31.9005C5.51351 32.8656 3.82554 33.527 2.29077 33.8557C3.82554 34.1851 5.51351 34.8445 6.47929 35.8109C7.44522 36.7767 8.10655 38.4641 8.43522 39.9998C8.76358 38.4641 9.4239 36.7768 10.3901 35.8103C11.3553 34.8445 13.0436 34.1837 14.578 33.8545C13.0437 33.5263 11.3553 32.8657 10.3895 31.8998C9.4239 30.9347 8.76226 29.246 8.4339 27.7109Z" fill="url(#paint2_linear_85_499)"/>
<defs>
<linearGradient id="paint0_linear_85_499" x1="12.4268" y1="0" x2="12.4268" y2="24.5012" gradientUnits="userSpaceOnUse">
<stop stop-color="#000A3F"/>
<stop offset="1" stop-color="#6A82FB"/>
</linearGradient>
<linearGradient id="paint1_linear_85_499" x1="26.5051" y1="18.7871" x2="26.5051" y2="33.4245" gradientUnits="userSpaceOnUse">
<stop stop-color="#000A3F"/>
<stop offset="1" stop-color="#6A82FB"/>
</linearGradient>
<linearGradient id="paint2_linear_85_499" x1="8.4344" y1="27.7109" x2="8.4344" y2="39.9998" gradientUnits="userSpaceOnUse">
<stop stop-color="#000A3F"/>
<stop offset="1" stop-color="#6A82FB"/>
</linearGradient>
</defs>
</svg>
