<svg width="15" height="16" viewBox="0 0 15 16" fill="none" xmlns="http://www.w3.org/2000/svg">
<path fill-rule="evenodd" clip-rule="evenodd" d="M3.125 6.75C2.71462 6.75 2.30826 6.66917 1.92911 6.51212C1.54997 6.35508 1.20547 6.12489 0.915291 5.83471C0.625108 5.54453 0.394922 5.20003 0.237876 4.82089C0.0808304 4.44174 0 4.03538 0 3.625C0 3.21462 0.0808304 2.80826 0.237876 2.42911C0.394922 2.04997 0.625108 1.70547 0.915291 1.41529C1.20547 1.12511 1.54997 0.894922 1.92911 0.737876C2.30826 0.58083 2.71462 0.5 3.125 0.5C3.9538 0.5 4.74866 0.82924 5.33471 1.41529C5.92076 2.00134 6.25 2.7962 6.25 3.625C6.25 4.4538 5.92076 5.24866 5.33471 5.83471C4.74866 6.42076 3.9538 6.75 3.125 6.75ZM1.83917 14.4225C1.682 14.5743 1.4715 14.6583 1.253 14.6564C1.0345 14.6545 0.825491 14.5669 0.670985 14.4123C0.516478 14.2578 0.428837 14.0488 0.426938 13.8303C0.425039 13.6118 0.509035 13.4013 0.660834 13.2442L12.3275 1.5775C12.4044 1.49791 12.4963 1.43442 12.598 1.39075C12.6997 1.34707 12.809 1.32409 12.9197 1.32312C13.0303 1.32216 13.14 1.34325 13.2425 1.38515C13.3449 1.42705 13.4379 1.48893 13.5162 1.56717C13.5944 1.64541 13.6563 1.73846 13.6982 1.84087C13.7401 1.94329 13.7612 2.05302 13.7602 2.16367C13.7592 2.27432 13.7363 2.38367 13.6926 2.48534C13.6489 2.58701 13.5854 2.67896 13.5058 2.75583L1.83917 14.4225ZM7.91667 12.375C7.91667 13.2038 8.24591 13.9987 8.83196 14.5847C9.41801 15.1708 10.2129 15.5 11.0417 15.5C11.8705 15.5 12.6653 15.1708 13.2514 14.5847C13.8374 13.9987 14.1667 13.2038 14.1667 12.375C14.1667 11.5462 13.8374 10.7513 13.2514 10.1653C12.6653 9.57924 11.8705 9.25 11.0417 9.25C10.2129 9.25 9.41801 9.57924 8.83196 10.1653C8.24591 10.7513 7.91667 11.5462 7.91667 12.375ZM3.125 5.08333C3.51177 5.08333 3.88271 4.92969 4.1562 4.6562C4.42969 4.38271 4.58333 4.01177 4.58333 3.625C4.58333 3.23823 4.42969 2.86729 4.1562 2.5938C3.88271 2.32031 3.51177 2.16667 3.125 2.16667C2.73823 2.16667 2.36729 2.32031 2.0938 2.5938C1.82031 2.86729 1.66667 3.23823 1.66667 3.625C1.66667 4.01177 1.82031 4.38271 2.0938 4.6562C2.36729 4.92969 2.73823 5.08333 3.125 5.08333ZM12.5 12.375C12.5 12.7618 12.3464 13.1327 12.0729 13.4062C11.7994 13.6797 11.4284 13.8333 11.0417 13.8333C10.6549 13.8333 10.284 13.6797 10.0105 13.4062C9.73698 13.1327 9.58333 12.7618 9.58333 12.375C9.58333 11.9882 9.73698 11.6173 10.0105 11.3438C10.284 11.0703 10.6549 10.9167 11.0417 10.9167C11.4284 10.9167 11.7994 11.0703 12.0729 11.3438C12.3464 11.6173 12.5 11.9882 12.5 12.375Z" fill="#363F72"/>
</svg>
