<svg width="16" height="16" viewBox="0 0 16 16" fill="none" xmlns="http://www.w3.org/2000/svg">
<path fill-rule="evenodd" clip-rule="evenodd" d="M7.31688 5.3895C7.99938 4.40124 7.86388 3.0637 6.99688 2.2325C6.11778 1.38806 4.77327 1.25928 3.74986 1.9215C3.32971 2.19308 3.00001 2.5837 2.80286 3.0435C2.60855 3.49881 2.55762 4.00252 2.65686 4.4875C2.75653 4.97472 3.00042 5.42071 3.35686 5.7675C3.72009 6.1186 4.17774 6.3563 4.67386 6.4515C5.17341 6.549 5.6905 6.5001 6.16288 6.3105C6.62968 6.1237 7.03108 5.8033 7.31688 5.3895Z" stroke="#363F72" stroke-width="1.5" stroke-linecap="round" stroke-linejoin="round"/>
<path fill-rule="evenodd" clip-rule="evenodd" d="M8.18314 13.3895C7.50054 12.4012 7.63614 11.0637 8.50314 10.2325C9.38224 9.38808 10.7267 9.25928 11.7501 9.92148C12.1703 10.1931 12.4999 10.5837 12.6971 11.0435C12.8914 11.4988 12.9423 12.0025 12.8431 12.4875C12.7434 12.9747 12.4995 13.4207 12.1431 13.7675C11.7799 14.1186 11.3222 14.3563 10.8261 14.4515C10.3274 14.5481 9.81154 14.4988 9.34014 14.3095C8.87234 14.1234 8.46984 13.8034 8.18314 13.3895Z" stroke="#363F72" stroke-width="1.5" stroke-linecap="round" stroke-linejoin="round"/>
<path d="M7.75 3.25049C7.3358 3.25049 7 3.58627 7 4.00049C7 4.4147 7.3358 4.75049 7.75 4.75049V3.25049ZM14.75 4.75049C15.1642 4.75049 15.5 4.4147 15.5 4.00049C15.5 3.58627 15.1642 3.25049 14.75 3.25049V4.75049ZM2.607 4.75049C3.02121 4.75049 3.357 4.4147 3.357 4.00049C3.357 3.58627 3.02121 3.25049 2.607 3.25049V4.75049ZM0.75 3.25049C0.33579 3.25049 0 3.58627 0 4.00049C0 4.4147 0.33579 4.75049 0.75 4.75049V3.25049ZM7.75 12.7505C8.1642 12.7505 8.5 12.4147 8.5 12.0005C8.5 11.5863 8.1642 11.2505 7.75 11.2505V12.7505ZM0.75 11.2505C0.33579 11.2505 0 11.5863 0 12.0005C0 12.4147 0.33579 12.7505 0.75 12.7505V11.2505ZM12.893 11.2505C12.4788 11.2505 12.143 11.5863 12.143 12.0005C12.143 12.4147 12.4788 12.7505 12.893 12.7505V11.2505ZM14.75 12.7505C15.1642 12.7505 15.5 12.4147 15.5 12.0005C15.5 11.5863 15.1642 11.2505 14.75 11.2505V12.7505ZM7.75 4.75049H14.75V3.25049H7.75V4.75049ZM2.607 3.25049H0.75V4.75049H2.607V3.25049ZM7.75 11.2505H0.75V12.7505H7.75V11.2505ZM12.893 12.7505H14.75V11.2505H12.893V12.7505Z" fill="#363F72"/>
</svg>
