<?xml version="1.0" encoding="utf-8"?>
<!-- Generator: Adobe Illustrator 16.0.0, SVG Export Plug-In . SVG Version: 6.00 Build 0)  -->
<!DOCTYPE svg PUBLIC "-//W3C//DTD SVG 1.1//EN" "http://www.w3.org/Graphics/SVG/1.1/DTD/svg11.dtd">
<svg version="1.1" xmlns="http://www.w3.org/2000/svg" xmlns:xlink="http://www.w3.org/1999/xlink" x="0px" y="0px" width="1024px"
	 height="720px" viewBox="0 0 1024 720" enable-background="new 0 0 1024 720" xml:space="preserve">
<g id="Layer_1">
	<g>
		<g>
			<g>
				<path fill="#1D1D1D" d="M150.144,356.104h-8.076c2.224-51.085,44.409-91.866,96.07-91.866c51.657,0,93.842,40.781,96.066,91.866
					h-68.552c-15.571,0-24.553-6.19-35.672-17.22c-6.509-6.438-11.043-14.59-13.186-23.484l-2.638-11.048l-2.472,10.552
					c-2.057,8.733-6.257,16.81-12.519,23.238c-0.248,0.248-0.495,0.495-0.829,0.818c-9.471,9.477-21.914,15.238-35.095,16.725
					C160.934,356.019,152.529,356.104,150.144,356.104z"/>
			</g>
			<g>
				<path fill="#1D1D1D" d="M150.144,363.895h-8.076c2.224,51.086,44.409,91.867,96.07,91.867c51.657,0,93.842-40.781,96.066-91.867
					h-68.552c-15.571,0-24.553,6.172-35.672,17.219c-6.509,6.42-11.043,14.582-13.186,23.486l-2.638,11.027l-2.472-10.541
					c-2.057-8.734-6.257-16.811-12.519-23.229c-0.248-0.248-0.495-0.496-0.829-0.83c-9.471-9.475-21.914-15.246-35.095-16.723
					C160.934,363.971,152.529,363.895,150.144,363.895z"/>
			</g>
			<g>
				<path fill="#1D1D1D" d="M198.896,402.295"/>
			</g>
		</g>
		<g>
			<path d="M450.546,293.02c5.247,0,10.229,1.009,14.952,3.047s8.857,4.819,12.399,8.362c3.534,3.533,6.324,7.694,8.362,12.485
				c2.019,4.791,3.048,9.876,3.048,15.248v55.865c0,5.373-1.029,10.42-3.048,15.143c-2.038,4.725-4.828,8.857-8.362,12.4
				c-3.542,3.543-7.676,6.324-12.399,8.361c-4.724,2.029-9.705,3.049-14.952,3.049h-15.343c-5.376,0-10.424-1.02-15.143-3.049
				c-4.724-2.037-8.824-4.818-12.296-8.361c-3.476-3.543-6.267-7.676-8.361-12.4c-2.1-4.723-3.147-9.77-3.147-15.143v-55.865
				c0-5.372,1.048-10.457,3.147-15.248c2.095-4.791,4.886-8.952,8.361-12.485c3.472-3.543,7.572-6.324,12.296-8.362
				c4.719-2.038,9.767-3.047,15.143-3.047H450.546z M465.308,333.343c0-4.724-1.353-8.724-4.038-12s-6.324-4.915-10.914-4.915
				h-14.952c-4.596,0-8.233,1.639-10.919,4.915c-2.69,3.276-4.033,7.276-4.033,12v53.304c0,4.725,1.343,8.754,4.033,12.105
				c2.686,3.334,6.323,5.01,10.919,5.01h14.952c4.59,0,8.229-1.676,10.914-5.01c2.686-3.352,4.038-7.381,4.038-12.105V333.343z"/>
			<path d="M607.325,349.275c-3.41,0-6.162,0.43-8.257,1.276c-2.095,0.857-3.705,2.01-4.819,3.438
				c-1.114,1.447-1.867,3.152-2.257,5.123c-0.4,1.963-0.591,4.135-0.591,6.496v61.371h-23.019v-61.182c0-2.361-0.2-4.551-0.591-6.59
				c-0.391-2.028-1.152-3.771-2.267-5.219c-1.114-1.429-2.714-2.581-4.819-3.438c-2.095-0.847-4.914-1.276-8.447-1.276h-4.724
				c-3.419,0-6.21,0.43-8.362,1.276c-2.171,0.857-3.838,2.01-5.019,3.438c-1.181,1.447-2,3.19-2.457,5.219
				c-0.467,2.039-0.695,4.229-0.695,6.59v61.182h-23.009V326.848h23.009v2.952c5.124-1.962,10.552-2.952,16.333-2.952h8.657
				c5.238,0,9.896,0.79,13.962,2.361c4.066,1.581,7.543,3.733,10.429,6.496c3.143-2.763,6.819-4.915,11.019-6.496
				c4.19-1.571,8.914-2.361,14.152-2.361h10.238c5.762,0,10.876,0.99,15.343,2.952c4.447,1.962,8.161,4.552,11.114,7.771
				c2.952,3.219,5.171,6.886,6.686,11.009c1.504,4.134,2.267,8.305,2.267,12.496v65.904h-22.819v-61.182
				c0-2.361-0.199-4.551-0.6-6.59c-0.391-2.028-1.172-3.771-2.353-5.219c-1.181-1.429-2.829-2.581-4.924-3.438
				c-2.095-0.847-4.847-1.276-8.257-1.276H607.325z"/>
			<path d="M704.315,349.275c-3.42,0-6.2,0.43-8.372,1.276c-2.161,0.857-3.828,2.01-5.009,3.438c-1.182,1.447-2,3.19-2.457,5.219
				c-0.467,2.039-0.686,4.229-0.686,6.59v61.182h-23.02V326.848h23.02v2.562c4.58-1.704,9.494-2.562,14.752-2.562h10.219
				c5.771,0,10.895,0.99,15.352,2.952s8.162,4.552,11.115,7.771c2.942,3.219,5.18,6.886,6.686,11.009
				c1.504,4.134,2.257,8.305,2.257,12.496v65.904h-23.009v-61.182c0-2.361-0.201-4.551-0.592-6.59
				c-0.39-2.028-1.152-3.771-2.266-5.219c-1.115-1.429-2.715-2.581-4.819-3.438c-2.095-0.847-4.914-1.276-8.457-1.276H704.315z"/>
			<path d="M786.333,316.028h-23.209V293.02h23.209V316.028z M786.333,426.98h-23.209V326.848h23.209V426.98z"/>
			<path d="M872.495,346.323h-39.143c-1.715,0-3.115,0.296-4.229,0.886c-1.125,0.591-2.076,1.41-2.857,2.457
				c-0.791,1.048-1.381,2.2-1.771,3.447c-0.391,1.238-0.581,2.457-0.581,3.639c0,2.495,0.81,4.752,2.448,6.781
				c1.637,2.037,3.646,3.047,6,3.047h22.037c4.59,0,8.619,0.791,12.096,2.363c3.467,1.58,6.361,3.742,8.656,6.494
				c2.286,2.752,4,6.039,5.115,9.828c1.113,3.811,1.666,7.877,1.666,12.201v0.6c0,4.324-0.686,8.256-2.057,11.799
				c-1.381,3.533-3.314,6.563-5.811,9.039c-2.484,2.494-5.447,4.467-8.848,5.904c-3.408,1.447-7.018,2.172-10.818,2.172H806.79
				v-19.486h40.914c3.02,0,5.81-0.848,8.362-2.553c2.562-1.695,3.904-4.256,4.038-7.676v0.201c0-1.963-0.362-3.602-1.086-4.914
				c-0.724-1.305-1.666-2.391-2.848-3.248c-1.182-0.848-2.495-1.467-3.934-1.867c-1.447-0.4-2.961-0.59-4.533-0.59h-17.695
				c-5.771,0-10.533-0.914-14.266-2.752c-3.743-1.84-6.686-4.201-8.857-7.086c-2.162-2.887-3.639-6.162-4.419-9.838
				c-0.79-3.668-1.181-7.4-1.181-11.211c0-3.933,0.59-7.732,1.771-11.408c1.18-3.668,2.914-6.915,5.209-9.744
				c2.295-2.809,5.152-5.009,8.563-6.59c3.408-1.563,7.275-2.353,11.6-2.353h44.066V346.323z"/>
		</g>
	</g>
</g>
</svg>
