<svg width="193" height="192" viewBox="0 0 193 192" fill="none" xmlns="http://www.w3.org/2000/svg">
<path d="M8.076 91.866H0C2.224 40.781 44.409 0 96.07 0C147.727 0 189.912 40.781 192.136 91.866H123.584C108.013 91.866 99.031 85.676 87.912 74.646C81.403 68.208 76.869 60.056 74.726 51.162L72.088 40.114L69.616 50.666C67.559 59.399 63.359 67.476 57.097 73.904C56.849 74.152 56.602 74.399 56.268 74.722C46.797 84.199 34.354 89.96 21.173 91.447C18.866 91.781 10.461 91.866 8.076 91.866Z" fill="white"/>
<path d="M8.076 99.657H0C2.224 150.743 44.409 191.524 96.07 191.524C147.727 191.524 189.912 150.743 192.136 99.657H123.584C108.013 99.657 99.031 105.829 87.912 116.876C81.403 123.296 76.869 131.458 74.726 140.362L72.088 151.389L69.616 140.848C67.559 132.114 63.359 124.037 57.097 117.619C56.849 117.371 56.602 117.123 56.268 116.789C46.797 107.314 34.354 101.543 21.173 100.066C18.866 99.733 10.461 99.657 8.076 99.657Z" fill="white"/>
</svg>
