<svg width="740" height="192" viewBox="0 0 740 192" fill="none" xmlns="http://www.w3.org/2000/svg">
<path d="M8.076 91.866H0C2.224 40.781 44.409 0 96.07 0C147.727 0 189.912 40.781 192.136 91.866H123.584C108.013 91.866 99.031 85.676 87.912 74.646C81.403 68.208 76.869 60.056 74.726 51.162L72.088 40.114L69.616 50.666C67.559 59.399 63.359 67.476 57.097 73.904C56.849 74.152 56.602 74.399 56.268 74.722C46.797 84.199 34.354 89.96 21.173 91.447C18.866 91.781 10.461 91.866 8.076 91.866Z" fill="black"/>
<path d="M8.076 99.657H0C2.224 150.743 44.409 191.524 96.07 191.524C147.727 191.524 189.912 150.743 192.136 99.657H123.584C108.013 99.657 99.031 105.829 87.912 116.876C81.403 123.296 76.869 131.458 74.726 140.362L72.088 151.389L69.616 140.848C67.559 132.114 63.359 124.037 57.097 117.619C56.849 117.371 56.602 117.123 56.268 116.789C46.797 107.314 34.354 101.543 21.173 100.066C18.866 99.733 10.461 99.657 8.076 99.657Z" fill="black"/>
<path d="M308.478 28.782C313.725 28.782 318.707 29.791 323.43 31.829C328.153 33.867 332.287 36.648 335.829 40.191C339.363 43.724 342.153 47.885 344.191 52.676C346.21 57.467 347.239 62.552 347.239 67.924V123.789C347.239 129.162 346.21 134.209 344.191 138.932C342.153 143.657 339.363 147.789 335.829 151.332C332.287 154.875 328.153 157.656 323.43 159.693C318.706 161.722 313.725 162.742 308.478 162.742H293.135C287.759 162.742 282.711 161.722 277.992 159.693C273.268 157.656 269.168 154.875 265.696 151.332C262.22 147.789 259.429 143.656 257.335 138.932C255.235 134.209 254.188 129.162 254.188 123.789V67.924C254.188 62.552 255.236 57.467 257.335 52.676C259.43 47.885 262.221 43.724 265.696 40.191C269.168 36.648 273.268 33.867 277.992 31.829C282.711 29.791 287.759 28.782 293.135 28.782H308.478ZM323.24 69.105C323.24 64.381 321.887 60.381 319.202 57.105C316.517 53.829 312.878 52.19 308.288 52.19H293.336C288.74 52.19 285.103 53.829 282.417 57.105C279.727 60.381 278.384 64.381 278.384 69.105V122.409C278.384 127.134 279.727 131.163 282.417 134.514C285.103 137.848 288.74 139.524 293.336 139.524H308.288C312.878 139.524 316.517 137.848 319.202 134.514C321.888 131.162 323.24 127.133 323.24 122.409V69.105Z" fill="black"/>
<path d="M465.257 85.037C461.847 85.037 459.095 85.467 457 86.313C454.905 87.17 453.295 88.323 452.181 89.751C451.067 91.198 450.314 92.903 449.924 94.874C449.524 96.837 449.333 99.009 449.333 101.37V162.741H426.314V101.559C426.314 99.198 426.114 97.008 425.723 94.969C425.332 92.941 424.571 91.198 423.456 89.75C422.342 88.321 420.742 87.169 418.637 86.312C416.542 85.465 413.723 85.036 410.19 85.036H405.466C402.047 85.036 399.256 85.466 397.104 86.312C394.933 87.169 393.266 88.322 392.085 89.75C390.904 91.197 390.085 92.94 389.628 94.969C389.161 97.008 388.933 99.198 388.933 101.559V162.741H365.924V62.61H388.933V65.562C394.057 63.6 399.485 62.61 405.266 62.61H413.923C419.161 62.61 423.819 63.4 427.885 64.971C431.951 66.552 435.428 68.704 438.314 71.467C441.457 68.704 445.133 66.552 449.333 64.971C453.523 63.4 458.247 62.61 463.485 62.61H473.723C479.485 62.61 484.599 63.6 489.066 65.562C493.513 67.524 497.227 70.114 500.18 73.333C503.132 76.552 505.351 80.219 506.866 84.342C508.37 88.476 509.133 92.647 509.133 96.838V162.742H486.314V101.56C486.314 99.199 486.115 97.009 485.714 94.97C485.323 92.942 484.542 91.199 483.361 89.751C482.18 88.322 480.532 87.17 478.437 86.313C476.342 85.466 473.59 85.037 470.18 85.037H465.257Z" fill="black"/>
<path d="M562.247 85.037C558.827 85.037 556.047 85.467 553.875 86.313C551.714 87.17 550.047 88.323 548.866 89.751C547.684 91.198 546.866 92.941 546.409 94.97C545.942 97.009 545.723 99.199 545.723 101.56V162.742H522.703V62.61H545.723V65.172C550.303 63.468 555.217 62.61 560.475 62.61H570.694C576.465 62.61 581.589 63.6 586.046 65.562C590.503 67.524 594.208 70.114 597.161 73.333C600.103 76.552 602.341 80.219 603.847 84.342C605.351 88.476 606.104 92.647 606.104 96.838V162.742H583.095V101.56C583.095 99.199 582.894 97.009 582.503 94.97C582.113 92.942 581.351 91.199 580.237 89.751C579.122 88.322 577.522 87.17 575.418 86.313C573.323 85.466 570.504 85.037 566.961 85.037H562.247Z" fill="black"/>
<path d="M644.265 51.79H621.056V28.782H644.265V51.79ZM644.265 162.742H621.056V62.61H644.265V162.742Z" fill="black"/>
<path d="M730.427 82.085H691.284C689.569 82.085 688.169 82.381 687.055 82.971C685.93 83.562 684.979 84.381 684.198 85.428C683.407 86.476 682.817 87.628 682.427 88.875C682.036 90.113 681.846 91.332 681.846 92.514C681.846 95.009 682.656 97.266 684.294 99.295C685.931 101.332 687.94 102.342 690.294 102.342H712.331C716.921 102.342 720.95 103.133 724.427 104.705C727.894 106.285 730.788 108.447 733.083 111.199C735.369 113.951 737.083 117.238 738.198 121.027C739.311 124.838 739.864 128.904 739.864 133.228V133.828C739.864 138.152 739.178 142.084 737.807 145.627C736.426 149.16 734.493 152.19 731.996 154.666C729.512 157.16 726.549 159.133 723.148 160.57C719.74 162.017 716.13 162.742 712.33 162.742H664.722V143.256H705.636C708.656 143.256 711.446 142.408 713.998 140.703C716.56 139.008 717.902 136.447 718.036 133.027V133.228C718.036 131.265 717.674 129.626 716.95 128.314C716.226 127.009 715.284 125.923 714.102 125.066C712.92 124.218 711.607 123.599 710.168 123.199C708.721 122.799 707.207 122.609 705.635 122.609H687.94C682.169 122.609 677.407 121.695 673.674 119.857C669.931 118.017 666.988 115.656 664.817 112.771C662.655 109.884 661.178 106.609 660.398 102.933C659.608 99.265 659.217 95.533 659.217 91.722C659.217 87.789 659.807 83.99 660.988 80.314C662.168 76.646 663.902 73.399 666.197 70.57C668.492 67.761 671.349 65.561 674.76 63.98C678.168 62.417 682.035 61.627 686.36 61.627H730.426L730.427 82.085Z" fill="black"/>
</svg>
