<svg width="124" height="43" viewBox="0 0 124 43" fill="none" xmlns="http://www.w3.org/2000/svg">
<path d="M5.41636 42.6004L0.101562 27.1743H1.73954L6.43923 40.8103L11.1735 27.1743H12.8115L7.49666 42.6004H5.40945H5.41636Z" fill="#4328BC"/>
<path d="M17.0156 42.6004V27.1743H26.6569V28.6879H18.5914V34.0234H25.3714V35.5301H18.5914V41.0868H26.6569V42.6004H17.0156Z" fill="#4328BC"/>
<path d="M31.8125 42.6004V27.1743H33.3952L41.8892 39.8151V27.1743H43.4719V42.6004H41.8892L33.3952 29.9458V42.6004H31.8125Z" fill="#4328BC"/>
<path d="M53.1643 42.6004V28.6879H47.7734V27.1743H60.124V28.6879H54.7331V42.6004H53.1573H53.1643Z" fill="#4328BC"/>
<path d="M70.4524 42.9174C69.2706 42.9174 68.2339 42.6755 67.3285 42.1917C66.4231 41.7079 65.7182 41.0237 65.1998 40.1321C64.6884 39.2475 64.4258 38.2108 64.4258 37.0289V27.1803L66.0085 27.1665V36.8216C66.0085 37.6233 66.1467 38.3144 66.4162 38.895C66.6858 39.4755 67.0452 39.9593 67.4806 40.3326C67.9229 40.7058 68.3998 40.9822 68.9181 41.1619C69.4365 41.3416 69.9479 41.4314 70.4386 41.4314C70.9293 41.4314 71.4477 41.3416 71.9729 41.1619C72.4913 40.9822 72.9751 40.7058 73.4105 40.3326C73.8459 39.9593 74.1984 39.4825 74.4679 38.895C74.7374 38.3144 74.8757 37.6233 74.8757 36.8216V27.1665H76.4584V37.022C76.4584 38.2039 76.2027 39.2406 75.6843 40.1252C75.1729 41.0099 74.461 41.6941 73.5556 42.1848C72.6502 42.6755 71.6135 42.9174 70.4317 42.9174H70.4524Z" fill="#4328BC"/>
<path d="M82.0547 42.6004V27.1743H88.0122C88.1643 27.1743 88.3301 27.1743 88.5237 27.1881C88.7172 27.202 88.9038 27.2227 89.0973 27.2573C89.9059 27.3817 90.5902 27.6581 91.15 28.1004C91.7098 28.5428 92.1383 29.0888 92.4216 29.7522C92.7119 30.4157 92.8571 31.1552 92.8571 31.9569C92.8571 33.118 92.553 34.134 91.9379 34.991C91.3228 35.848 90.445 36.3871 89.3046 36.6083L88.7587 36.7396H83.6374V42.6004H82.0547ZM83.6305 35.2398H87.9708C88.1021 35.2398 88.2472 35.2398 88.42 35.2191C88.5928 35.2053 88.7587 35.1776 88.9245 35.1431C89.4498 35.0256 89.8852 34.8113 90.2239 34.4865C90.5625 34.1686 90.8182 33.7815 90.9841 33.3392C91.15 32.8969 91.2329 32.4338 91.2329 31.9569C91.2329 31.4801 91.15 31.017 90.9841 30.5678C90.8182 30.1185 90.5625 29.7384 90.2239 29.4136C89.8852 29.0957 89.4498 28.8745 88.9245 28.757C88.7587 28.7225 88.5928 28.7017 88.42 28.6879C88.2472 28.6741 88.1021 28.6741 87.9708 28.6741H83.6305V35.2398ZM91.3988 42.6004L88.3578 36.3249L89.8714 35.7443L93.2165 42.6004H91.3988Z" fill="#4328BC"/>
<path d="M98.1523 42.6004V27.1743H107.794V28.6879H99.7281V34.0234H106.508V35.5301H99.7281V41.0868H107.794V42.6004H98.1523Z" fill="#4328BC"/>
<path d="M117.45 42.917C116.372 42.917 115.404 42.7373 114.54 42.3779C113.676 42.0185 112.971 41.5071 112.411 40.8436C111.852 40.1801 111.485 39.3922 111.312 38.473L112.923 38.2035C113.179 39.2056 113.725 39.9866 114.554 40.5533C115.383 41.1201 116.372 41.4034 117.519 41.4034C118.279 41.4034 118.956 41.2859 119.558 41.044C120.159 40.8021 120.629 40.4635 120.975 40.0212C121.32 39.5788 121.486 39.0536 121.486 38.4454C121.486 38.0445 121.417 37.7059 121.272 37.4225C121.127 37.1391 120.94 36.9042 120.705 36.7175C120.47 36.5309 120.214 36.3789 119.931 36.2545C119.654 36.1301 119.378 36.0264 119.115 35.9504L115.204 34.7824C114.734 34.6442 114.298 34.4714 113.897 34.264C113.496 34.0567 113.151 33.801 112.854 33.5038C112.557 33.2066 112.328 32.861 112.163 32.4602C111.997 32.0593 111.914 31.6032 111.914 31.0917C111.914 30.2209 112.142 29.4676 112.598 28.8317C113.054 28.1959 113.683 27.7052 114.471 27.3665C115.266 27.021 116.164 26.8551 117.18 26.862C118.21 26.862 119.129 27.0417 119.938 27.408C120.746 27.7743 121.417 28.2927 121.949 28.9631C122.481 29.6335 122.827 30.4352 123 31.3544L121.348 31.6516C121.244 30.9812 120.995 30.4006 120.608 29.903C120.221 29.4123 119.73 29.0322 119.136 28.7626C118.542 28.4931 117.885 28.3549 117.173 28.348C116.482 28.348 115.867 28.4654 115.328 28.6935C114.789 28.9216 114.36 29.2395 114.049 29.6404C113.731 30.0412 113.579 30.4974 113.579 31.0088C113.579 31.5202 113.725 31.9487 114.015 32.2598C114.305 32.5777 114.664 32.8196 115.086 32.9993C115.515 33.179 115.922 33.3241 116.323 33.4416L119.343 34.3331C119.654 34.4161 120.028 34.5405 120.449 34.6994C120.878 34.8584 121.286 35.0865 121.693 35.3837C122.094 35.6809 122.433 36.0679 122.695 36.5448C122.958 37.0216 123.089 37.6298 123.089 38.3624C123.089 39.095 122.951 39.7171 122.668 40.2769C122.384 40.8436 121.99 41.3136 121.479 41.7006C120.968 42.0876 120.373 42.3779 119.689 42.5853C119.005 42.7857 118.265 42.8894 117.457 42.8894L117.45 42.917Z" fill="#4328BC"/>
<path d="M14.1471 6.01807H9.79298C9.79298 6.01807 9.79298 6.05262 9.79298 6.08027C9.79298 6.5295 9.73769 6.90963 9.61328 7.22063L11.4448 10.9735C13.843 9.87458 14.1125 7.63531 14.1402 6.02498L14.1471 6.01807Z" fill="#4328BC"/>
<path d="M8.48438 4.23303C9.07184 4.40581 9.4796 4.75138 9.67312 5.29737H14.1378C14.0134 3.33456 12.956 1.67585 10.7029 0.908691L8.49129 4.23994L8.48438 4.23303Z" fill="#4328BC"/>
<path d="M4.92188 4.11075H7.49979C7.57582 4.11075 7.63802 4.11766 7.70713 4.12457L9.98095 0.696561C9.28291 0.537601 8.48811 0.447754 7.59655 0.447754H4.92188V4.11075Z" fill="#4328BC"/>
<path d="M11.5626 12.8121L9.14366 7.8705C8.76354 8.16078 8.19681 8.31282 7.34672 8.31282H4.20208V0.447754H0V17.65H4.20208V11.6303H6.40678L9.32336 17.65H13.9263L11.5695 12.8121H11.5626Z" fill="#4328BC"/>
<path d="M48.8205 9.25485C48.8205 14.6319 46.0975 17.6244 40.762 17.6244H34.1133V0.885254H40.762C46.0906 0.885254 48.8205 3.87785 48.8205 9.25485ZM44.7083 9.25485C44.7083 5.78537 43.6578 4.42384 40.3542 4.42384H38.2048V14.0859H40.3542C43.6509 14.0859 44.7083 12.7243 44.7083 9.25485Z" fill="#4328BC"/>
<path d="M51.6719 17.6244V0.885254H55.7634V17.6244H51.6719Z" fill="#4328BC"/>
<path d="M91.8857 17.6244H87.6076L81.657 7.77583H81.5602V17.6244H77.4688V0.885254H81.581L87.6768 11.0241H87.7735V0.885254H91.8857V17.6244Z" fill="#4328BC"/>
<path d="M105.135 11.9527H109.178C108.867 15.9474 105.639 17.8342 102.101 17.8342C97.4355 17.8342 94.3047 14.7518 94.3047 9.25035C94.3047 3.74895 97.4355 0.666504 102.094 0.666504C105.605 0.666504 108.791 2.55329 109.15 6.49965H105.086C104.492 4.89623 103.842 4.20509 102.19 4.20509C99.7785 4.20509 98.6035 6.21629 98.6035 9.25035C98.6035 12.2844 99.7785 14.2956 102.19 14.2956C103.863 14.2956 104.533 13.6045 105.135 11.9527Z" fill="#4328BC"/>
<path d="M123.805 14.0859V17.6244H111.586V0.885254H123.563V4.42384H115.671V7.53393H122.368V10.8099H115.671V14.0859H123.805Z" fill="#4328BC"/>
<path d="M20.1525 16.8504L20.8091 14.8254H20.816L23.7326 5.93051L27.5822 17.6244H32.0054L25.571 0.885254H21.8873L15.4805 17.6244H19.9037L20.1525 16.8504Z" fill="#4328BC"/>
<path d="M63.2883 16.8504L63.9449 14.8254H63.9518L66.8615 5.93051L70.718 17.6244H75.1343L68.7068 0.885254H65.0231L58.6094 17.6244H63.0326L63.2883 16.8504Z" fill="#4328BC"/>
</svg>
